<mxfile host="Electron" modified="2024-04-14T01:03:31.009Z" agent="Mozilla/5.0 (Windows NT 10.0; Win64; x64) AppleWebKit/537.36 (KHTML, like Gecko) draw.io/24.1.0 Chrome/120.0.6099.109 Electron/28.1.0 Safari/537.36" etag="9rvetX4W55Oo7WHDq1qv" version="24.1.0" type="device">
  <diagram name="Page-1" id="QDGyv-JanXxpcS5OpIl6">
    <mxGraphModel dx="1050" dy="621" grid="1" gridSize="10" guides="1" tooltips="1" connect="1" arrows="1" fold="1" page="1" pageScale="1" pageWidth="827" pageHeight="1169" math="0" shadow="0">
      <root>
        <mxCell id="0" />
        <mxCell id="1" parent="0" />
        <mxCell id="PTYRoitOFDBHR2Nst2hy-1" value="" style="ellipse;html=1;" parent="1" vertex="1">
          <mxGeometry x="380" y="70" width="30" height="30" as="geometry" />
        </mxCell>
        <mxCell id="PTYRoitOFDBHR2Nst2hy-2" value="" style="endArrow=open;html=1;rounded=0;align=center;verticalAlign=top;endFill=0;labelBackgroundColor=none;endSize=6;entryX=0.5;entryY=0;entryDx=0;entryDy=0;" parent="1" source="PTYRoitOFDBHR2Nst2hy-1" target="PTYRoitOFDBHR2Nst2hy-4" edge="1">
          <mxGeometry relative="1" as="geometry">
            <mxPoint x="395" y="160" as="targetPoint" />
          </mxGeometry>
        </mxCell>
        <mxCell id="PTYRoitOFDBHR2Nst2hy-3" style="edgeStyle=orthogonalEdgeStyle;rounded=0;orthogonalLoop=1;jettySize=auto;html=1;exitX=0.5;exitY=1;exitDx=0;exitDy=0;entryX=0.5;entryY=0;entryDx=0;entryDy=0;" parent="1" source="PTYRoitOFDBHR2Nst2hy-4" target="PTYRoitOFDBHR2Nst2hy-6" edge="1">
          <mxGeometry relative="1" as="geometry">
            <mxPoint x="395" y="300" as="targetPoint" />
          </mxGeometry>
        </mxCell>
        <mxCell id="PTYRoitOFDBHR2Nst2hy-4" value="Administrator odabire zaposlenika čije podatke želi izmijeniti&amp;nbsp;" style="rounded=1;whiteSpace=wrap;html=1;" parent="1" vertex="1">
          <mxGeometry x="327.5" y="170" width="135" height="60" as="geometry" />
        </mxCell>
        <mxCell id="PTYRoitOFDBHR2Nst2hy-5" style="edgeStyle=orthogonalEdgeStyle;rounded=0;orthogonalLoop=1;jettySize=auto;html=1;exitX=0.5;exitY=1;exitDx=0;exitDy=0;entryX=0.5;entryY=0;entryDx=0;entryDy=0;" parent="1" source="PTYRoitOFDBHR2Nst2hy-6" target="PTYRoitOFDBHR2Nst2hy-7" edge="1">
          <mxGeometry relative="1" as="geometry" />
        </mxCell>
        <mxCell id="PTYRoitOFDBHR2Nst2hy-6" value="Prikaz podataka zaposlenika" style="rounded=1;whiteSpace=wrap;html=1;" parent="1" vertex="1">
          <mxGeometry x="327.5" y="300" width="135" height="60" as="geometry" />
        </mxCell>
        <mxCell id="PTYRoitOFDBHR2Nst2hy-7" value="Izmjena željenih podataka" style="rounded=1;whiteSpace=wrap;html=1;" parent="1" vertex="1">
          <mxGeometry x="327.5" y="430" width="135" height="60" as="geometry" />
        </mxCell>
        <mxCell id="PTYRoitOFDBHR2Nst2hy-8" style="edgeStyle=orthogonalEdgeStyle;rounded=0;orthogonalLoop=1;jettySize=auto;html=1;exitX=0.5;exitY=1;exitDx=0;exitDy=0;entryX=0.5;entryY=0;entryDx=0;entryDy=0;" parent="1" source="PTYRoitOFDBHR2Nst2hy-7" target="PTYRoitOFDBHR2Nst2hy-10" edge="1">
          <mxGeometry relative="1" as="geometry">
            <mxPoint x="395" y="620" as="sourcePoint" />
          </mxGeometry>
        </mxCell>
        <mxCell id="PTYRoitOFDBHR2Nst2hy-9" style="edgeStyle=orthogonalEdgeStyle;rounded=0;orthogonalLoop=1;jettySize=auto;html=1;exitX=0.5;exitY=1;exitDx=0;exitDy=0;entryX=0.5;entryY=0;entryDx=0;entryDy=0;" parent="1" source="PTYRoitOFDBHR2Nst2hy-10" target="PTYRoitOFDBHR2Nst2hy-14" edge="1">
          <mxGeometry relative="1" as="geometry" />
        </mxCell>
        <mxCell id="PTYRoitOFDBHR2Nst2hy-10" value="Potvrda izmjene podataka" style="rounded=1;whiteSpace=wrap;html=1;" parent="1" vertex="1">
          <mxGeometry x="327.5" y="600" width="135" height="60" as="geometry" />
        </mxCell>
        <mxCell id="PTYRoitOFDBHR2Nst2hy-11" style="edgeStyle=orthogonalEdgeStyle;rounded=0;orthogonalLoop=1;jettySize=auto;html=1;exitX=1;exitY=0.5;exitDx=0;exitDy=0;entryX=0.5;entryY=0;entryDx=0;entryDy=0;" parent="1" source="PTYRoitOFDBHR2Nst2hy-14" target="PTYRoitOFDBHR2Nst2hy-27" edge="1">
          <mxGeometry relative="1" as="geometry">
            <mxPoint x="610" y="860" as="targetPoint" />
          </mxGeometry>
        </mxCell>
        <mxCell id="PTYRoitOFDBHR2Nst2hy-12" value="Ne" style="edgeLabel;html=1;align=center;verticalAlign=middle;resizable=0;points=[];" parent="PTYRoitOFDBHR2Nst2hy-11" vertex="1" connectable="0">
          <mxGeometry x="-0.2053" y="-1" relative="1" as="geometry">
            <mxPoint as="offset" />
          </mxGeometry>
        </mxCell>
        <mxCell id="PTYRoitOFDBHR2Nst2hy-13" style="edgeStyle=orthogonalEdgeStyle;rounded=0;orthogonalLoop=1;jettySize=auto;html=1;exitX=0.5;exitY=1;exitDx=0;exitDy=0;" parent="1" source="PTYRoitOFDBHR2Nst2hy-14" target="PTYRoitOFDBHR2Nst2hy-18" edge="1">
          <mxGeometry relative="1" as="geometry" />
        </mxCell>
        <mxCell id="PTYRoitOFDBHR2Nst2hy-14" value="Potvrda izmjene?" style="rhombus;whiteSpace=wrap;html=1;" parent="1" vertex="1">
          <mxGeometry x="362.5" y="730" width="65" height="60" as="geometry" />
        </mxCell>
        <mxCell id="PTYRoitOFDBHR2Nst2hy-15" style="edgeStyle=orthogonalEdgeStyle;rounded=0;orthogonalLoop=1;jettySize=auto;html=1;exitX=0.5;exitY=1;exitDx=0;exitDy=0;exitPerimeter=0;" parent="1" source="PTYRoitOFDBHR2Nst2hy-27" target="PTYRoitOFDBHR2Nst2hy-16" edge="1">
          <mxGeometry relative="1" as="geometry">
            <Array as="points">
              <mxPoint x="610" y="1405" />
            </Array>
            <mxPoint x="610" y="920" as="sourcePoint" />
          </mxGeometry>
        </mxCell>
        <mxCell id="PTYRoitOFDBHR2Nst2hy-16" value="" style="ellipse;html=1;shape=endState;fillColor=strokeColor;" parent="1" vertex="1">
          <mxGeometry x="380" y="1390" width="30" height="30" as="geometry" />
        </mxCell>
        <mxCell id="PTYRoitOFDBHR2Nst2hy-17" style="edgeStyle=orthogonalEdgeStyle;rounded=0;orthogonalLoop=1;jettySize=auto;html=1;exitX=0.5;exitY=1;exitDx=0;exitDy=0;" parent="1" source="PTYRoitOFDBHR2Nst2hy-18" target="PTYRoitOFDBHR2Nst2hy-22" edge="1">
          <mxGeometry relative="1" as="geometry" />
        </mxCell>
        <mxCell id="PTYRoitOFDBHR2Nst2hy-18" value="Provjera ispravnosti unesenih podataka" style="rounded=1;whiteSpace=wrap;html=1;" parent="1" vertex="1">
          <mxGeometry x="327.5" y="860" width="135" height="60" as="geometry" />
        </mxCell>
        <mxCell id="PTYRoitOFDBHR2Nst2hy-19" style="edgeStyle=orthogonalEdgeStyle;rounded=0;orthogonalLoop=1;jettySize=auto;html=1;exitX=0;exitY=0.5;exitDx=0;exitDy=0;entryX=0;entryY=0.5;entryDx=0;entryDy=0;" parent="1" source="PTYRoitOFDBHR2Nst2hy-22" target="PTYRoitOFDBHR2Nst2hy-6" edge="1">
          <mxGeometry relative="1" as="geometry">
            <Array as="points">
              <mxPoint x="308" y="1030" />
              <mxPoint x="308" y="330" />
            </Array>
          </mxGeometry>
        </mxCell>
        <mxCell id="PTYRoitOFDBHR2Nst2hy-20" value="Ne" style="edgeLabel;html=1;align=center;verticalAlign=middle;resizable=0;points=[];" parent="PTYRoitOFDBHR2Nst2hy-19" vertex="1" connectable="0">
          <mxGeometry x="-0.1771" y="3" relative="1" as="geometry">
            <mxPoint as="offset" />
          </mxGeometry>
        </mxCell>
        <mxCell id="PTYRoitOFDBHR2Nst2hy-21" style="edgeStyle=orthogonalEdgeStyle;rounded=0;orthogonalLoop=1;jettySize=auto;html=1;exitX=0.5;exitY=1;exitDx=0;exitDy=0;entryX=0.5;entryY=0;entryDx=0;entryDy=0;" parent="1" source="PTYRoitOFDBHR2Nst2hy-22" target="PTYRoitOFDBHR2Nst2hy-24" edge="1">
          <mxGeometry relative="1" as="geometry" />
        </mxCell>
        <mxCell id="PTYRoitOFDBHR2Nst2hy-22" value="Potvrda ispravnosti?" style="rhombus;whiteSpace=wrap;html=1;" parent="1" vertex="1">
          <mxGeometry x="362.5" y="1000" width="65" height="60" as="geometry" />
        </mxCell>
        <mxCell id="PTYRoitOFDBHR2Nst2hy-23" style="edgeStyle=orthogonalEdgeStyle;rounded=0;orthogonalLoop=1;jettySize=auto;html=1;exitX=0.5;exitY=1;exitDx=0;exitDy=0;entryX=0.5;entryY=0;entryDx=0;entryDy=0;" parent="1" source="PTYRoitOFDBHR2Nst2hy-24" target="PTYRoitOFDBHR2Nst2hy-26" edge="1">
          <mxGeometry relative="1" as="geometry" />
        </mxCell>
        <mxCell id="PTYRoitOFDBHR2Nst2hy-24" value="Spremanje promjena u bazu podataka" style="rounded=1;whiteSpace=wrap;html=1;" parent="1" vertex="1">
          <mxGeometry x="327.5" y="1130" width="135" height="60" as="geometry" />
        </mxCell>
        <mxCell id="PTYRoitOFDBHR2Nst2hy-25" style="edgeStyle=orthogonalEdgeStyle;rounded=0;orthogonalLoop=1;jettySize=auto;html=1;exitX=0.5;exitY=1;exitDx=0;exitDy=0;entryX=0.5;entryY=0;entryDx=0;entryDy=0;" parent="1" source="PTYRoitOFDBHR2Nst2hy-26" target="PTYRoitOFDBHR2Nst2hy-16" edge="1">
          <mxGeometry relative="1" as="geometry" />
        </mxCell>
        <mxCell id="PTYRoitOFDBHR2Nst2hy-26" value="Sustav prikazuje poruku o uspješnom ažuriranju zaposlenika" style="rounded=1;whiteSpace=wrap;html=1;" parent="1" vertex="1">
          <mxGeometry x="327.5" y="1260" width="135" height="60" as="geometry" />
        </mxCell>
        <mxCell id="PTYRoitOFDBHR2Nst2hy-27" value="Povratak na listu članova" style="rounded=1;whiteSpace=wrap;html=1;" parent="1" vertex="1">
          <mxGeometry x="550" y="860" width="120" height="60" as="geometry" />
        </mxCell>
      </root>
    </mxGraphModel>
  </diagram>
</mxfile>
